<svg xmlns="http://www.w3.org/2000/svg" xmlns:xlink="http://www.w3.org/1999/xlink" width="600" zoomAndPan="magnify" viewBox="0 0 450 449.999984" height="600" preserveAspectRatio="xMidYMid meet" version="1.0"><defs><g/></defs><rect x="-45" width="540" fill="#ffffff" y="-44.999998" height="539.99998" fill-opacity="1"/><rect x="-45" width="540" fill="#ff3131" y="-44.999998" height="539.99998" fill-opacity="1"/><g fill="#ffffff" fill-opacity="1"><g transform="translate(70.367186, 234.374982)"><g><path d="M 4.734375 -20.734375 C 3.796875 -20.734375 3.015625 -20.550781 2.390625 -20.1875 C 1.773438 -19.820312 1.332031 -19.363281 1.0625 -18.8125 L 1.5 -22.015625 L 16.671875 -22.015625 L 17.125 -18.8125 C 16.84375 -19.363281 16.390625 -19.820312 15.765625 -20.1875 C 15.148438 -20.550781 14.375 -20.734375 13.4375 -20.734375 L 10.234375 -20.734375 L 10.234375 -2.96875 C 10.234375 -2.125 10.335938 -1.476562 10.546875 -1.03125 C 10.765625 -0.582031 11 -0.28125 11.25 -0.125 C 11.507812 0.0195312 11.640625 0.0625 11.640625 0 L 6.5625 0 C 6.5625 0.0625 6.6875 0.0195312 6.9375 -0.125 C 7.195312 -0.28125 7.425781 -0.570312 7.625 -1 C 7.832031 -1.4375 7.9375 -2.09375 7.9375 -2.96875 L 7.9375 -20.734375 Z M 4.734375 -20.734375 "/></g></g></g><g fill="#ffffff" fill-opacity="1"><g transform="translate(88.026849, 234.374982)"><g><path d="M 2.71875 0 C 2.71875 0.0625 2.84375 0.015625 3.09375 -0.140625 C 3.351562 -0.304688 3.582031 -0.628906 3.78125 -1.109375 C 3.988281 -1.585938 4.09375 -2.285156 4.09375 -3.203125 L 4.09375 -18.90625 C 4.09375 -19.78125 3.988281 -20.445312 3.78125 -20.90625 C 3.582031 -21.363281 3.351562 -21.675781 3.09375 -21.84375 C 2.84375 -22.019531 2.71875 -22.078125 2.71875 -22.015625 L 14.296875 -22.015625 L 14.296875 -18.8125 C 13.921875 -20.09375 12.769531 -20.734375 10.84375 -20.734375 L 6.40625 -20.734375 L 6.40625 -11.640625 L 11.90625 -11.640625 C 12.332031 -11.640625 12.691406 -11.707031 12.984375 -11.84375 C 13.285156 -11.988281 13.507812 -12.132812 13.65625 -12.28125 C 13.8125 -12.4375 13.898438 -12.535156 13.921875 -12.578125 L 13.921875 -9.46875 C 13.898438 -9.507812 13.8125 -9.601562 13.65625 -9.75 C 13.507812 -9.90625 13.289062 -10.046875 13 -10.171875 C 12.71875 -10.304688 12.363281 -10.375 11.9375 -10.375 L 6.40625 -10.375 L 6.40625 -1.28125 L 11.390625 -1.28125 C 12.347656 -1.28125 13.171875 -1.476562 13.859375 -1.875 C 14.554688 -2.269531 15.054688 -2.773438 15.359375 -3.390625 L 14.78125 0 Z M 2.71875 0 "/></g></g></g><g fill="#ffffff" fill-opacity="1"><g transform="translate(104.918693, 234.374982)"><g><path d="M 8.546875 0.390625 C 7.429688 0.390625 6.363281 0.234375 5.34375 -0.078125 C 4.320312 -0.390625 3.40625 -0.820312 2.59375 -1.375 L 2.59375 -5.25 C 3.144531 -3.820312 3.988281 -2.738281 5.125 -2 C 6.269531 -1.257812 7.460938 -0.890625 8.703125 -0.890625 C 9.941406 -0.890625 10.976562 -1.300781 11.8125 -2.125 C 12.644531 -2.945312 13.0625 -3.96875 13.0625 -5.1875 C 13.0625 -6 12.894531 -6.691406 12.5625 -7.265625 C 12.226562 -7.835938 11.695312 -8.375 10.96875 -8.875 C 10.25 -9.375 9.226562 -9.9375 7.90625 -10.5625 C 6.050781 -11.414062 4.703125 -12.304688 3.859375 -13.234375 C 3.015625 -14.160156 2.59375 -15.285156 2.59375 -16.609375 C 2.59375 -17.734375 2.863281 -18.738281 3.40625 -19.625 C 3.945312 -20.507812 4.679688 -21.191406 5.609375 -21.671875 C 6.546875 -22.160156 7.566406 -22.40625 8.671875 -22.40625 C 9.628906 -22.40625 10.566406 -22.269531 11.484375 -22 C 12.398438 -21.726562 13.253906 -21.347656 14.046875 -20.859375 L 14.046875 -17.40625 C 13.535156 -18.582031 12.757812 -19.492188 11.71875 -20.140625 C 10.6875 -20.796875 9.640625 -21.125 8.578125 -21.125 C 7.359375 -21.125 6.375 -20.726562 5.625 -19.9375 C 4.882812 -19.144531 4.515625 -18.207031 4.515625 -17.125 C 4.515625 -16.332031 4.738281 -15.648438 5.1875 -15.078125 C 5.632812 -14.515625 6.179688 -14.039062 6.828125 -13.65625 C 7.484375 -13.28125 8.394531 -12.8125 9.5625 -12.25 C 10.757812 -11.675781 11.738281 -11.144531 12.5 -10.65625 C 13.269531 -10.164062 13.910156 -9.523438 14.421875 -8.734375 C 14.941406 -7.941406 15.203125 -6.984375 15.203125 -5.859375 C 15.203125 -4.578125 14.894531 -3.46875 14.28125 -2.53125 C 13.675781 -1.59375 12.867188 -0.867188 11.859375 -0.359375 C 10.847656 0.140625 9.742188 0.390625 8.546875 0.390625 Z M 8.546875 0.390625 "/></g></g></g><g fill="#ffffff" fill-opacity="1"><g transform="translate(121.810538, 234.374982)"><g><path d="M 4.734375 -20.734375 C 3.796875 -20.734375 3.015625 -20.550781 2.390625 -20.1875 C 1.773438 -19.820312 1.332031 -19.363281 1.0625 -18.8125 L 1.5 -22.015625 L 16.671875 -22.015625 L 17.125 -18.8125 C 16.84375 -19.363281 16.390625 -19.820312 15.765625 -20.1875 C 15.148438 -20.550781 14.375 -20.734375 13.4375 -20.734375 L 10.234375 -20.734375 L 10.234375 -2.96875 C 10.234375 -2.125 10.335938 -1.476562 10.546875 -1.03125 C 10.765625 -0.582031 11 -0.28125 11.25 -0.125 C 11.507812 0.0195312 11.640625 0.0625 11.640625 0 L 6.5625 0 C 6.5625 0.0625 6.6875 0.0195312 6.9375 -0.125 C 7.195312 -0.28125 7.425781 -0.570312 7.625 -1 C 7.832031 -1.4375 7.9375 -2.09375 7.9375 -2.96875 L 7.9375 -20.734375 Z M 4.734375 -20.734375 "/></g></g></g><g fill="#ffffff" fill-opacity="1"><g transform="translate(139.4702, 234.374982)"><g><path d="M 2.71875 0 C 2.71875 0.0625 2.84375 0.015625 3.09375 -0.140625 C 3.351562 -0.304688 3.582031 -0.628906 3.78125 -1.109375 C 3.988281 -1.585938 4.09375 -2.285156 4.09375 -3.203125 L 4.09375 -18.90625 C 4.09375 -19.78125 3.988281 -20.445312 3.78125 -20.90625 C 3.582031 -21.363281 3.351562 -21.675781 3.09375 -21.84375 C 2.84375 -22.019531 2.71875 -22.078125 2.71875 -22.015625 L 14.296875 -22.015625 L 14.296875 -18.8125 C 13.921875 -20.09375 12.769531 -20.734375 10.84375 -20.734375 L 6.40625 -20.734375 L 6.40625 -11.640625 L 11.90625 -11.640625 C 12.332031 -11.640625 12.691406 -11.707031 12.984375 -11.84375 C 13.285156 -11.988281 13.507812 -12.132812 13.65625 -12.28125 C 13.8125 -12.4375 13.898438 -12.535156 13.921875 -12.578125 L 13.921875 -9.46875 C 13.898438 -9.507812 13.8125 -9.601562 13.65625 -9.75 C 13.507812 -9.90625 13.289062 -10.046875 13 -10.171875 C 12.71875 -10.304688 12.363281 -10.375 11.9375 -10.375 L 6.40625 -10.375 L 6.40625 -1.28125 L 11.390625 -1.28125 C 12.347656 -1.28125 13.171875 -1.476562 13.859375 -1.875 C 14.554688 -2.269531 15.054688 -2.773438 15.359375 -3.390625 L 14.78125 0 Z M 2.71875 0 "/></g></g></g><g fill="#ffffff" fill-opacity="1"><g transform="translate(156.362045, 234.374982)"><g/></g></g><g fill="#ffffff" fill-opacity="1"><g transform="translate(164.552031, 234.374982)"><g><path d="M 17.0625 -1.796875 C 15.050781 -0.597656 12.375 0 9.03125 0 L 2.71875 0 C 2.71875 0.0625 2.84375 0.00390625 3.09375 -0.171875 C 3.351562 -0.359375 3.582031 -0.695312 3.78125 -1.1875 C 3.988281 -1.675781 4.09375 -2.390625 4.09375 -3.328125 L 4.09375 -19.078125 C 4.09375 -19.898438 3.988281 -20.53125 3.78125 -20.96875 C 3.582031 -21.40625 3.351562 -21.695312 3.09375 -21.84375 C 2.84375 -22 2.71875 -22.054688 2.71875 -22.015625 L 8.984375 -22.015625 C 12.253906 -22.015625 14.835938 -21.484375 16.734375 -20.421875 C 18.421875 -19.484375 19.722656 -18.210938 20.640625 -16.609375 C 21.554688 -15.003906 22.015625 -13.203125 22.015625 -11.203125 C 22.015625 -9.023438 21.582031 -7.140625 20.71875 -5.546875 C 19.851562 -3.960938 18.632812 -2.710938 17.0625 -1.796875 Z M 15.8125 -18.96875 C 14.875 -19.59375 13.867188 -20.039062 12.796875 -20.3125 C 11.734375 -20.59375 10.460938 -20.734375 8.984375 -20.734375 L 6.40625 -20.734375 L 6.40625 -1.28125 L 8.984375 -1.28125 C 10.734375 -1.28125 12.164062 -1.425781 13.28125 -1.71875 C 14.40625 -2.019531 15.375 -2.484375 16.1875 -3.109375 C 17.238281 -3.910156 18.046875 -4.96875 18.609375 -6.28125 C 19.171875 -7.59375 19.453125 -9.125 19.453125 -10.875 C 19.453125 -12.726562 19.125 -14.351562 18.46875 -15.75 C 17.820312 -17.15625 16.9375 -18.226562 15.8125 -18.96875 Z M 15.8125 -18.96875 "/></g></g></g><g fill="#ffffff" fill-opacity="1"><g transform="translate(188.354184, 234.374982)"><g><path d="M 2.71875 0 C 2.71875 0.0625 2.84375 0.015625 3.09375 -0.140625 C 3.351562 -0.304688 3.582031 -0.628906 3.78125 -1.109375 C 3.988281 -1.585938 4.09375 -2.285156 4.09375 -3.203125 L 4.09375 -18.90625 C 4.09375 -19.78125 3.988281 -20.445312 3.78125 -20.90625 C 3.582031 -21.363281 3.351562 -21.675781 3.09375 -21.84375 C 2.84375 -22.019531 2.71875 -22.078125 2.71875 -22.015625 L 14.296875 -22.015625 L 14.296875 -18.8125 C 13.921875 -20.09375 12.769531 -20.734375 10.84375 -20.734375 L 6.40625 -20.734375 L 6.40625 -11.640625 L 11.90625 -11.640625 C 12.332031 -11.640625 12.691406 -11.707031 12.984375 -11.84375 C 13.285156 -11.988281 13.507812 -12.132812 13.65625 -12.28125 C 13.8125 -12.4375 13.898438 -12.535156 13.921875 -12.578125 L 13.921875 -9.46875 C 13.898438 -9.507812 13.8125 -9.601562 13.65625 -9.75 C 13.507812 -9.90625 13.289062 -10.046875 13 -10.171875 C 12.71875 -10.304688 12.363281 -10.375 11.9375 -10.375 L 6.40625 -10.375 L 6.40625 -1.28125 L 11.390625 -1.28125 C 12.347656 -1.28125 13.171875 -1.476562 13.859375 -1.875 C 14.554688 -2.269531 15.054688 -2.773438 15.359375 -3.390625 L 14.78125 0 Z M 2.71875 0 "/></g></g></g><g fill="#ffffff" fill-opacity="1"><g transform="translate(205.246028, 234.374982)"><g/></g></g><g fill="#ffffff" fill-opacity="1"><g transform="translate(213.436015, 234.374982)"><g><path d="M 4.734375 -20.734375 C 3.796875 -20.734375 3.015625 -20.550781 2.390625 -20.1875 C 1.773438 -19.820312 1.332031 -19.363281 1.0625 -18.8125 L 1.5 -22.015625 L 16.671875 -22.015625 L 17.125 -18.8125 C 16.84375 -19.363281 16.390625 -19.820312 15.765625 -20.1875 C 15.148438 -20.550781 14.375 -20.734375 13.4375 -20.734375 L 10.234375 -20.734375 L 10.234375 -2.96875 C 10.234375 -2.125 10.335938 -1.476562 10.546875 -1.03125 C 10.765625 -0.582031 11 -0.28125 11.25 -0.125 C 11.507812 0.0195312 11.640625 0.0625 11.640625 0 L 6.5625 0 C 6.5625 0.0625 6.6875 0.0195312 6.9375 -0.125 C 7.195312 -0.28125 7.425781 -0.570312 7.625 -1 C 7.832031 -1.4375 7.9375 -2.09375 7.9375 -2.96875 L 7.9375 -20.734375 Z M 4.734375 -20.734375 "/></g></g></g><g fill="#ffffff" fill-opacity="1"><g transform="translate(231.095678, 234.374982)"><g><path d="M 6.75 -8.546875 L 4.703125 -3.453125 C 4.378906 -2.660156 4.21875 -2.007812 4.21875 -1.5 C 4.21875 -0.800781 4.539062 -0.300781 5.1875 0 L 0.609375 0 C 0.816406 0 1.125 -0.210938 1.53125 -0.640625 C 1.9375 -1.066406 2.40625 -1.910156 2.9375 -3.171875 L 11.296875 -23.046875 L 19.578125 -3.078125 C 20.046875 -1.921875 20.5 -1.128906 20.9375 -0.703125 C 21.375 -0.273438 21.722656 -0.0390625 21.984375 0 L 16.671875 0 C 17.203125 -0.257812 17.46875 -0.65625 17.46875 -1.1875 C 17.46875 -1.632812 17.296875 -2.273438 16.953125 -3.109375 L 14.71875 -8.546875 Z M 14.203125 -9.859375 L 10.71875 -18.40625 L 7.296875 -9.859375 Z M 14.203125 -9.859375 "/></g></g></g><g fill="#ffffff" fill-opacity="1"><g transform="translate(253.10627, 234.374982)"><g><path d="M 21.25 0 C 21.5 -0.0390625 21.773438 -0.269531 22.078125 -0.6875 C 22.378906 -1.101562 22.53125 -1.878906 22.53125 -3.015625 L 22.53125 -19.015625 L 14.140625 0.359375 L 5.625 -18.96875 L 5.625 -3.171875 C 5.625 -2.015625 5.8125 -1.207031 6.1875 -0.75 C 6.5625 -0.289062 6.898438 -0.0390625 7.203125 0 L 2.46875 0 C 2.78125 -0.0390625 3.128906 -0.28125 3.515625 -0.71875 C 3.898438 -1.15625 4.09375 -1.972656 4.09375 -3.171875 L 4.09375 -19.203125 C 4.09375 -20.222656 3.910156 -20.925781 3.546875 -21.3125 C 3.191406 -21.695312 2.832031 -21.929688 2.46875 -22.015625 L 6.78125 -22.015625 L 14.625 -4.125 L 22.34375 -22.015625 L 26.203125 -22.015625 C 25.929688 -21.972656 25.632812 -21.75 25.3125 -21.34375 C 24.988281 -20.9375 24.828125 -20.191406 24.828125 -19.109375 L 24.828125 -2.875 C 24.828125 -1.8125 24.988281 -1.078125 25.3125 -0.671875 C 25.632812 -0.265625 25.929688 -0.0390625 26.203125 0 Z M 21.25 0 "/></g></g></g><g fill="#ffffff" fill-opacity="1"><g transform="translate(281.515287, 234.374982)"><g><path d="M 6.75 -8.546875 L 4.703125 -3.453125 C 4.378906 -2.660156 4.21875 -2.007812 4.21875 -1.5 C 4.21875 -0.800781 4.539062 -0.300781 5.1875 0 L 0.609375 0 C 0.816406 0 1.125 -0.210938 1.53125 -0.640625 C 1.9375 -1.066406 2.40625 -1.910156 2.9375 -3.171875 L 11.296875 -23.046875 L 19.578125 -3.078125 C 20.046875 -1.921875 20.5 -1.128906 20.9375 -0.703125 C 21.375 -0.273438 21.722656 -0.0390625 21.984375 0 L 16.671875 0 C 17.203125 -0.257812 17.46875 -0.65625 17.46875 -1.1875 C 17.46875 -1.632812 17.296875 -2.273438 16.953125 -3.109375 L 14.71875 -8.546875 Z M 14.203125 -9.859375 L 10.71875 -18.40625 L 7.296875 -9.859375 Z M 14.203125 -9.859375 "/></g></g></g><g fill="#ffffff" fill-opacity="1"><g transform="translate(303.52589, 234.374982)"><g><path d="M 23.328125 -22.015625 C 23.023438 -21.953125 22.726562 -21.710938 22.4375 -21.296875 C 22.15625 -20.878906 22.015625 -20.148438 22.015625 -19.109375 L 22.015625 0.890625 L 5.625 -18.203125 L 5.625 -2.875 C 5.625 -1.851562 5.804688 -1.132812 6.171875 -0.71875 C 6.535156 -0.300781 6.890625 -0.0625 7.234375 0 L 2.71875 0 C 3.019531 -0.0625 3.320312 -0.300781 3.625 -0.71875 C 3.9375 -1.132812 4.09375 -1.863281 4.09375 -2.90625 L 4.09375 -18.90625 C 4.09375 -19.632812 3.847656 -20.296875 3.359375 -20.890625 C 2.867188 -21.492188 2.25 -21.867188 1.5 -22.015625 L 5.46875 -22.015625 L 20.484375 -4.515625 L 20.484375 -19.109375 C 20.484375 -20.742188 19.925781 -21.710938 18.8125 -22.015625 Z M 23.328125 -22.015625 "/></g></g></g><g fill="#ffffff" fill-opacity="1"><g transform="translate(329.119592, 234.374982)"><g><path d="M 17.03125 0 C 17.03125 0.0625 17.15625 0.015625 17.40625 -0.140625 C 17.664062 -0.304688 17.898438 -0.609375 18.109375 -1.046875 C 18.328125 -1.484375 18.4375 -2.125 18.4375 -2.96875 L 18.4375 -10.234375 L 6.40625 -10.234375 L 6.40625 -2.96875 C 6.40625 -2.125 6.507812 -1.484375 6.71875 -1.046875 C 6.9375 -0.609375 7.171875 -0.3125 7.421875 -0.15625 C 7.679688 -0.0078125 7.8125 0.0390625 7.8125 0 L 2.71875 0 C 2.71875 0.0625 2.84375 0.015625 3.09375 -0.140625 C 3.351562 -0.304688 3.582031 -0.609375 3.78125 -1.046875 C 3.988281 -1.484375 4.09375 -2.125 4.09375 -2.96875 L 4.09375 -19.046875 C 4.09375 -19.890625 3.988281 -20.53125 3.78125 -20.96875 C 3.582031 -21.40625 3.351562 -21.695312 3.09375 -21.84375 C 2.84375 -22 2.71875 -22.054688 2.71875 -22.015625 L 7.8125 -22.015625 C 7.8125 -22.054688 7.679688 -22 7.421875 -21.84375 C 7.171875 -21.695312 6.9375 -21.40625 6.71875 -20.96875 C 6.507812 -20.53125 6.40625 -19.890625 6.40625 -19.046875 L 6.40625 -11.640625 L 18.4375 -11.640625 L 18.4375 -19.046875 C 18.4375 -19.890625 18.328125 -20.53125 18.109375 -20.96875 C 17.898438 -21.40625 17.664062 -21.695312 17.40625 -21.84375 C 17.15625 -22 17.03125 -22.054688 17.03125 -22.015625 L 22.109375 -22.015625 C 22.109375 -22.078125 21.976562 -22.023438 21.71875 -21.859375 C 21.46875 -21.703125 21.238281 -21.40625 21.03125 -20.96875 C 20.832031 -20.53125 20.734375 -19.890625 20.734375 -19.046875 L 20.734375 -2.96875 C 20.734375 -2.125 20.835938 -1.484375 21.046875 -1.046875 C 21.265625 -0.609375 21.5 -0.3125 21.75 -0.15625 C 22.007812 -0.0078125 22.140625 0.0390625 22.140625 0 Z M 17.03125 0 "/></g></g></g><g fill="#ffffff" fill-opacity="1"><g transform="translate(353.433616, 234.374982)"><g><path d="M 2.046875 -10.75 C 2.046875 -13.007812 2.53125 -15.023438 3.5 -16.796875 C 4.46875 -18.566406 5.832031 -19.941406 7.59375 -20.921875 C 9.351562 -21.910156 11.390625 -22.40625 13.703125 -22.40625 C 15.617188 -22.40625 17.410156 -21.984375 19.078125 -21.140625 C 20.753906 -20.296875 22.097656 -19.03125 23.109375 -17.34375 C 24.128906 -15.65625 24.640625 -13.628906 24.640625 -11.265625 C 24.640625 -9.003906 24.15625 -6.988281 23.1875 -5.21875 C 22.21875 -3.445312 20.851562 -2.066406 19.09375 -1.078125 C 17.332031 -0.0976562 15.296875 0.390625 12.984375 0.390625 C 11.066406 0.390625 9.269531 -0.03125 7.59375 -0.875 C 5.925781 -1.71875 4.582031 -2.984375 3.5625 -4.671875 C 2.550781 -6.359375 2.046875 -8.382812 2.046875 -10.75 Z M 22.078125 -10.78125 C 22.078125 -12.726562 21.675781 -14.484375 20.875 -16.046875 C 20.082031 -17.617188 18.984375 -18.847656 17.578125 -19.734375 C 16.179688 -20.617188 14.609375 -21.0625 12.859375 -21.0625 C 11.265625 -21.0625 9.84375 -20.65625 8.59375 -19.84375 C 7.34375 -19.03125 6.363281 -17.878906 5.65625 -16.390625 C 4.957031 -14.910156 4.609375 -13.191406 4.609375 -11.234375 C 4.609375 -9.285156 5.007812 -7.523438 5.8125 -5.953125 C 6.613281 -4.390625 7.710938 -3.164062 9.109375 -2.28125 C 10.503906 -1.394531 12.078125 -0.953125 13.828125 -0.953125 C 15.421875 -0.953125 16.84375 -1.359375 18.09375 -2.171875 C 19.34375 -2.984375 20.316406 -4.128906 21.015625 -5.609375 C 21.722656 -7.097656 22.078125 -8.820312 22.078125 -10.78125 Z M 22.078125 -10.78125 "/></g></g></g></svg>