<svg xmlns="http://www.w3.org/2000/svg" xmlns:xlink="http://www.w3.org/1999/xlink" width="1080" zoomAndPan="magnify" viewBox="0 0 810 1439.999935" height="1920" preserveAspectRatio="xMidYMid meet" version="1.0"><rect x="-81" width="972" fill="#ffffff" y="-143.999994" height="1727.999922" fill-opacity="1"/><rect x="-81" width="972" fill="#ff3131" y="-143.999994" height="1727.999922" fill-opacity="1"/><path stroke-linecap="butt" transform="matrix(0.75, 0, 0, 0.75, 0.0000182812, 1358.999862)" fill="none" stroke-linejoin="miter" d="M -0.000024375 50.000188 L 1080.000069 50.000188 " stroke="#000000" stroke-width="100" stroke-opacity="1" stroke-miterlimit="4"/><path stroke-linecap="butt" transform="matrix(0.75, 0, 0, 0.75, 0.0000182812, 1432.499856)" fill="none" stroke-linejoin="miter" d="M -0.000024375 5.000193 L 1080.000069 5.000193 " stroke="#00bf63" stroke-width="10" stroke-opacity="1" stroke-miterlimit="4"/><path stroke-linecap="butt" transform="matrix(-0.75, 0, 0, -0.75, 809.999948, 80.999973)" fill="none" stroke-linejoin="miter" d="M -0.000069375 49.999968 L 1080.000024 49.999968 " stroke="#000000" stroke-width="100" stroke-opacity="1" stroke-miterlimit="4"/><path stroke-linecap="butt" transform="matrix(-0.75, 0, 0, -0.75, 809.999948, 7.499979)" fill="none" stroke-linejoin="miter" d="M -0.000069375 4.999973 L 1080.000024 4.999973 " stroke="#00bf63" stroke-width="10" stroke-opacity="1" stroke-miterlimit="4"/><path stroke-linecap="butt" transform="matrix(-0.00196334, 0.749997, -0.749997, -0.00196334, 11.247526, 7.502454)" fill="none" stroke-linejoin="miter" d="M -0.000594646 5.001929 L 1910.006111 5.001929 " stroke="#00bf63" stroke-width="10" stroke-opacity="1" stroke-miterlimit="4"/><path stroke-linecap="butt" transform="matrix(-0.00196334, 0.749997, -0.749997, -0.00196334, 809.997476, 0.022047)" fill="none" stroke-linejoin="miter" d="M -0.000677217 5.001862 L 1910.006028 5.001863 " stroke="#00bf63" stroke-width="10" stroke-opacity="1" stroke-miterlimit="4"/></svg>