<svg xmlns="http://www.w3.org/2000/svg" xmlns:xlink="http://www.w3.org/1999/xlink" width="40" zoomAndPan="magnify" viewBox="0 0 30 30.000001" height="40" preserveAspectRatio="xMidYMid meet" version="1.0"><defs><clipPath id="1dd686b365"><path d="M 0.484375 0 L 29.515625 0 L 29.515625 29.03125 L 0.484375 29.03125 Z M 0.484375 0 " clip-rule="nonzero"/></clipPath><clipPath id="b3aac2a86a"><path d="M 15 9 L 25.488281 9 L 25.488281 24 L 15 24 Z M 15 9 " clip-rule="nonzero"/></clipPath><clipPath id="8abfd2be12"><path d="M 4.441406 7 L 21 7 L 21 29.03125 L 4.441406 29.03125 Z M 4.441406 7 " clip-rule="nonzero"/></clipPath><clipPath id="e41bc8e3b1"><path d="M 4.441406 0 L 21 0 L 21 8 L 4.441406 8 Z M 4.441406 0 " clip-rule="nonzero"/></clipPath></defs><g clip-path="url(#1dd686b365)"><path fill="#ffffff" d="M 0.484375 0 L 29.515625 0 L 29.515625 29.03125 L 0.484375 29.03125 Z M 0.484375 0 " fill-opacity="1" fill-rule="nonzero"/><path fill="#ffffff" d="M 0.484375 0 L 29.515625 0 L 29.515625 29.03125 L 0.484375 29.03125 Z M 0.484375 0 " fill-opacity="1" fill-rule="nonzero"/></g><g clip-path="url(#b3aac2a86a)"><path fill="#cd7f32" d="M 23.703125 19.773438 C 23.703125 20.738281 22.957031 21.53125 22.046875 21.53125 L 18.691406 21.53125 C 17.78125 21.53125 17.035156 20.738281 17.035156 19.773438 L 17.035156 13.121094 C 17.035156 12.15625 17.78125 11.367188 18.691406 11.367188 L 22.046875 11.367188 C 22.957031 11.367188 23.703125 12.15625 23.703125 13.121094 Z M 23.082031 9.269531 L 18.058594 9.269531 C 16.695312 9.269531 15.578125 10.386719 15.578125 11.75 L 15.578125 21.148438 C 15.578125 22.507812 16.695312 23.625 18.058594 23.625 L 23.082031 23.625 C 24.445312 23.625 25.558594 22.507812 25.558594 21.148438 L 25.558594 11.75 C 25.558594 10.386719 24.445312 9.269531 23.082031 9.269531 " fill-opacity="1" fill-rule="nonzero"/></g><g clip-path="url(#8abfd2be12)"><path fill="#cd7f32" d="M 4.609375 7.886719 L 4.609375 27.363281 C 4.609375 28.273438 5.351562 29.015625 6.261719 29.015625 L 18.917969 29.015625 C 19.824219 29.015625 20.570312 28.273438 20.570312 27.363281 L 20.570312 7.886719 L 4.609375 7.886719 " fill-opacity="1" fill-rule="nonzero"/></g><path fill="#ffffff" d="M 5.320312 8.761719 L 5.320312 26.488281 C 5.320312 27.320312 6 28 6.832031 28 L 18.34375 28 C 19.175781 28 19.855469 27.320312 19.855469 26.488281 L 19.855469 8.761719 L 5.320312 8.761719 " fill-opacity="1" fill-rule="nonzero"/><path fill="#cd7f32" d="M 5.800781 13.132812 L 5.800781 25.902344 C 5.800781 26.683594 6.4375 27.320312 7.21875 27.320312 L 17.960938 27.320312 C 18.738281 27.320312 19.378906 26.683594 19.378906 25.902344 L 19.378906 13.132812 L 5.800781 13.132812 " fill-opacity="1" fill-rule="nonzero"/><g clip-path="url(#e41bc8e3b1)"><path fill="#ffffff" d="M 4.773438 7.722656 C 4.660156 7.460938 4.605469 7.1875 4.605469 6.90625 C 4.605469 5.878906 5.339844 4.996094 6.347656 4.808594 L 6.496094 4.78125 L 6.480469 4.632812 C 6.472656 4.523438 6.464844 4.429688 6.464844 4.335938 C 6.464844 2.570312 7.90625 1.128906 9.675781 1.128906 C 10.222656 1.128906 10.761719 1.273438 11.242188 1.539062 L 11.398438 1.628906 L 11.46875 1.460938 C 11.808594 0.679688 12.578125 0.171875 13.433594 0.171875 C 14.550781 0.171875 15.488281 1.046875 15.5625 2.164062 L 15.570312 2.292969 L 15.699219 2.3125 C 16.363281 2.417969 16.964844 2.71875 17.441406 3.1875 L 17.511719 3.253906 L 17.601562 3.226562 C 17.800781 3.167969 18.003906 3.140625 18.210938 3.140625 C 19.386719 3.140625 20.34375 4.097656 20.34375 5.273438 C 20.34375 5.773438 20.167969 6.261719 19.847656 6.644531 L 19.746094 6.765625 L 19.859375 6.871094 C 20.105469 7.097656 20.265625 7.398438 20.320312 7.722656 L 4.773438 7.722656 " fill-opacity="1" fill-rule="nonzero"/><path fill="#cd7f32" d="M 13.433594 0.0078125 C 12.484375 0.0078125 11.671875 0.578125 11.320312 1.398438 C 10.832031 1.125 10.273438 0.96875 9.675781 0.96875 C 7.8125 0.96875 6.304688 2.476562 6.304688 4.335938 C 6.304688 4.441406 6.308594 4.542969 6.320312 4.648438 C 5.253906 4.84375 4.445312 5.78125 4.445312 6.90625 C 4.445312 7.257812 4.523438 7.589844 4.664062 7.886719 L 20.503906 7.886719 C 20.480469 7.4375 20.28125 7.039062 19.972656 6.75 C 20.304688 6.351562 20.507812 5.835938 20.507812 5.273438 C 20.507812 4.003906 19.480469 2.976562 18.210938 2.976562 C 17.980469 2.976562 17.765625 3.011719 17.554688 3.070312 C 17.066406 2.589844 16.433594 2.261719 15.722656 2.152344 C 15.644531 0.953125 14.648438 0.0078125 13.433594 0.0078125 Z M 13.433594 0.332031 C 14.464844 0.332031 15.328125 1.140625 15.398438 2.171875 L 15.414062 2.433594 L 15.671875 2.472656 C 16.300781 2.574219 16.875 2.859375 17.328125 3.304688 L 17.464844 3.4375 L 17.648438 3.382812 C 17.832031 3.332031 18.019531 3.304688 18.210938 3.304688 C 19.296875 3.304688 20.183594 4.1875 20.183594 5.273438 C 20.183594 5.738281 20.019531 6.1875 19.722656 6.542969 L 19.523438 6.78125 L 19.75 6.992188 C 19.921875 7.148438 20.046875 7.34375 20.113281 7.5625 L 4.882812 7.5625 C 4.808594 7.347656 4.769531 7.128906 4.769531 6.90625 C 4.769531 5.957031 5.445312 5.140625 6.378906 4.96875 L 6.671875 4.914062 L 6.644531 4.617188 C 6.632812 4.515625 6.628906 4.425781 6.628906 4.335938 C 6.628906 2.660156 7.996094 1.292969 9.675781 1.292969 C 10.195312 1.292969 10.707031 1.429688 11.160156 1.683594 L 11.476562 1.859375 L 11.621094 1.527344 C 11.933594 0.800781 12.644531 0.332031 13.433594 0.332031 " fill-opacity="1" fill-rule="nonzero"/></g><path fill="#cd7f32" d="M 9.363281 4.816406 C 9.363281 4.816406 9.324219 4.75 9.28125 4.613281 C 9.261719 4.546875 9.242188 4.464844 9.226562 4.367188 C 9.210938 4.269531 9.203125 4.15625 9.210938 4.035156 C 9.21875 3.910156 9.238281 3.773438 9.285156 3.636719 C 9.332031 3.5 9.40625 3.355469 9.507812 3.230469 C 9.609375 3.105469 9.738281 2.992188 9.878906 2.902344 C 9.914062 2.878906 9.949219 2.859375 9.988281 2.839844 C 10.023438 2.816406 10.0625 2.800781 10.101562 2.78125 L 10.15625 2.757812 L 10.21875 2.734375 C 10.253906 2.71875 10.289062 2.703125 10.332031 2.691406 C 10.371094 2.679688 10.414062 2.667969 10.457031 2.65625 L 10.582031 2.628906 C 10.664062 2.613281 10.75 2.605469 10.835938 2.605469 C 11.003906 2.597656 11.171875 2.625 11.324219 2.671875 C 11.480469 2.71875 11.617188 2.792969 11.738281 2.875 C 11.855469 2.953125 11.957031 3.042969 12.039062 3.136719 C 12.121094 3.226562 12.1875 3.316406 12.242188 3.398438 C 12.296875 3.480469 12.335938 3.554688 12.367188 3.617188 C 12.425781 3.746094 12.445312 3.820312 12.445312 3.820312 C 12.445312 3.820312 12.398438 3.757812 12.308594 3.65625 C 12.222656 3.554688 12.085938 3.414062 11.910156 3.277344 C 11.820312 3.207031 11.71875 3.140625 11.609375 3.085938 C 11.5 3.027344 11.378906 2.980469 11.25 2.953125 C 11.121094 2.921875 10.984375 2.914062 10.847656 2.921875 C 10.710938 2.929688 10.566406 2.957031 10.4375 3 C 10.40625 3.007812 10.367188 3.023438 10.332031 3.035156 L 10.28125 3.054688 L 10.230469 3.078125 C 10.199219 3.089844 10.167969 3.105469 10.136719 3.121094 C 10.101562 3.136719 10.070312 3.152344 10.042969 3.171875 C 9.921875 3.238281 9.816406 3.324219 9.722656 3.417969 C 9.636719 3.511719 9.558594 3.617188 9.507812 3.726562 C 9.457031 3.835938 9.414062 3.949219 9.390625 4.058594 C 9.34375 4.273438 9.339844 4.46875 9.34375 4.605469 C 9.351562 4.738281 9.363281 4.816406 9.363281 4.816406 " fill-opacity="1" fill-rule="nonzero"/><path fill="#cd7f32" d="M 12.445312 3.789062 C 12.445312 3.789062 12.445312 3.75 12.460938 3.683594 C 12.476562 3.617188 12.507812 3.519531 12.570312 3.414062 C 12.632812 3.3125 12.730469 3.199219 12.867188 3.117188 C 12.9375 3.074219 13.011719 3.039062 13.09375 3.015625 C 13.136719 3.003906 13.175781 2.992188 13.21875 2.988281 L 13.253906 2.980469 L 13.28125 2.980469 L 13.335938 2.972656 C 13.421875 2.96875 13.503906 2.96875 13.585938 2.980469 C 13.667969 2.992188 13.746094 3.011719 13.820312 3.039062 C 13.96875 3.09375 14.09375 3.1875 14.171875 3.285156 C 14.253906 3.382812 14.292969 3.476562 14.308594 3.542969 C 14.328125 3.613281 14.324219 3.652344 14.324219 3.652344 C 14.324219 3.652344 14.300781 3.621094 14.253906 3.578125 C 14.207031 3.535156 14.136719 3.476562 14.046875 3.429688 C 13.960938 3.378906 13.855469 3.339844 13.738281 3.320312 C 13.679688 3.308594 13.617188 3.300781 13.554688 3.296875 C 13.492188 3.292969 13.425781 3.292969 13.363281 3.296875 C 13.285156 3.304688 13.234375 3.308594 13.171875 3.320312 C 13.113281 3.332031 13.054688 3.347656 13 3.371094 C 12.890625 3.410156 12.792969 3.472656 12.710938 3.539062 C 12.628906 3.601562 12.5625 3.664062 12.515625 3.710938 C 12.472656 3.757812 12.445312 3.789062 12.445312 3.789062 " fill-opacity="1" fill-rule="nonzero"/><path fill="#cd7f32" d="M 8.015625 6.121094 C 8.015625 6.121094 7.988281 6.09375 7.953125 6.035156 C 7.917969 5.976562 7.875 5.882812 7.847656 5.765625 C 7.824219 5.648438 7.816406 5.496094 7.859375 5.34375 C 7.878906 5.265625 7.910156 5.1875 7.953125 5.113281 C 7.976562 5.078125 8 5.042969 8.023438 5.007812 L 8.046875 4.980469 L 8.066406 4.960938 L 8.101562 4.917969 C 8.160156 4.851562 8.21875 4.800781 8.289062 4.75 C 8.351562 4.703125 8.425781 4.664062 8.5 4.632812 C 8.644531 4.570312 8.796875 4.550781 8.921875 4.566406 C 9.046875 4.582031 9.140625 4.625 9.199219 4.660156 C 9.261719 4.699219 9.285156 4.730469 9.285156 4.730469 C 9.285156 4.730469 9.246094 4.722656 9.179688 4.726562 C 9.117188 4.726562 9.027344 4.734375 8.929688 4.757812 C 8.832031 4.785156 8.730469 4.828125 8.628906 4.890625 C 8.578125 4.921875 8.53125 4.960938 8.484375 5 C 8.4375 5.042969 8.386719 5.089844 8.34375 5.132812 C 8.292969 5.191406 8.257812 5.230469 8.21875 5.28125 C 8.183594 5.332031 8.15625 5.382812 8.128906 5.4375 C 8.078125 5.542969 8.050781 5.65625 8.035156 5.757812 C 8.019531 5.859375 8.015625 5.953125 8.015625 6.015625 C 8.015625 6.082031 8.015625 6.121094 8.015625 6.121094 " fill-opacity="1" fill-rule="nonzero"/><path fill="#cd7f32" d="M 16.171875 6.386719 C 16.171875 6.386719 16.160156 6.328125 16.167969 6.230469 C 16.175781 6.128906 16.195312 5.984375 16.269531 5.820312 C 16.308594 5.738281 16.359375 5.652344 16.429688 5.574219 C 16.5 5.492188 16.589844 5.417969 16.695312 5.363281 C 16.800781 5.304688 16.917969 5.265625 17.039062 5.246094 C 17.101562 5.234375 17.164062 5.230469 17.222656 5.230469 L 17.316406 5.230469 C 17.347656 5.234375 17.371094 5.230469 17.402344 5.234375 C 17.433594 5.238281 17.46875 5.242188 17.5 5.25 L 17.589844 5.265625 C 17.648438 5.28125 17.710938 5.300781 17.765625 5.324219 C 17.882812 5.371094 17.988281 5.441406 18.074219 5.519531 C 18.253906 5.675781 18.355469 5.875 18.40625 6.042969 C 18.457031 6.210938 18.464844 6.359375 18.464844 6.457031 C 18.460938 6.558594 18.449219 6.613281 18.449219 6.613281 C 18.449219 6.613281 18.433594 6.558594 18.398438 6.46875 C 18.363281 6.378906 18.3125 6.253906 18.230469 6.121094 C 18.148438 5.988281 18.039062 5.847656 17.890625 5.746094 C 17.820312 5.695312 17.738281 5.652344 17.652344 5.621094 C 17.605469 5.605469 17.5625 5.59375 17.515625 5.582031 L 17.445312 5.570312 C 17.421875 5.566406 17.398438 5.5625 17.378906 5.5625 C 17.355469 5.558594 17.324219 5.554688 17.296875 5.554688 L 17.261719 5.550781 L 17.226562 5.550781 C 17.175781 5.550781 17.128906 5.550781 17.082031 5.558594 C 16.988281 5.566406 16.902344 5.585938 16.820312 5.617188 C 16.738281 5.652344 16.664062 5.695312 16.597656 5.746094 C 16.53125 5.796875 16.476562 5.855469 16.429688 5.914062 C 16.332031 6.035156 16.269531 6.15625 16.230469 6.242188 C 16.1875 6.332031 16.171875 6.386719 16.171875 6.386719 " fill-opacity="1" fill-rule="nonzero"/><path fill="#cd7f32" d="M 14.929688 6.847656 C 14.929688 6.847656 14.914062 6.820312 14.90625 6.773438 C 14.894531 6.722656 14.882812 6.648438 14.898438 6.5625 C 14.902344 6.515625 14.914062 6.46875 14.933594 6.417969 C 14.945312 6.394531 14.957031 6.367188 14.96875 6.34375 C 14.984375 6.320312 15 6.296875 15.019531 6.269531 C 15.054688 6.222656 15.097656 6.179688 15.148438 6.140625 C 15.171875 6.121094 15.203125 6.105469 15.230469 6.085938 C 15.238281 6.082031 15.238281 6.082031 15.253906 6.074219 L 15.269531 6.066406 L 15.304688 6.050781 C 15.367188 6.023438 15.421875 6.003906 15.480469 5.992188 C 15.539062 5.980469 15.601562 5.976562 15.660156 5.976562 C 15.78125 5.980469 15.890625 6.019531 15.964844 6.070312 C 16.042969 6.125 16.089844 6.183594 16.117188 6.230469 C 16.140625 6.277344 16.144531 6.304688 16.144531 6.304688 C 16.144531 6.304688 16.035156 6.257812 15.898438 6.25 C 15.828125 6.246094 15.753906 6.25 15.679688 6.269531 C 15.640625 6.277344 15.601562 6.289062 15.558594 6.300781 C 15.519531 6.3125 15.476562 6.328125 15.441406 6.34375 L 15.40625 6.359375 L 15.390625 6.367188 L 15.378906 6.375 C 15.363281 6.382812 15.339844 6.390625 15.324219 6.402344 C 15.289062 6.421875 15.257812 6.441406 15.226562 6.464844 C 15.199219 6.488281 15.167969 6.515625 15.140625 6.542969 C 15.117188 6.570312 15.09375 6.597656 15.070312 6.628906 C 15.027344 6.683594 14.992188 6.738281 14.96875 6.78125 C 14.945312 6.824219 14.929688 6.847656 14.929688 6.847656 " fill-opacity="1" fill-rule="nonzero"/><path fill="#cd7f32" d="M 10.796875 6.269531 C 10.796875 6.269531 10.785156 6.210938 10.792969 6.109375 C 10.800781 6.011719 10.820312 5.867188 10.894531 5.703125 C 10.933594 5.621094 10.984375 5.535156 11.054688 5.457031 C 11.125 5.375 11.214844 5.300781 11.320312 5.246094 C 11.425781 5.1875 11.542969 5.148438 11.664062 5.128906 C 11.726562 5.117188 11.789062 5.113281 11.847656 5.113281 L 11.941406 5.113281 C 11.972656 5.117188 11.992188 5.113281 12.027344 5.117188 C 12.058594 5.121094 12.089844 5.125 12.125 5.132812 L 12.214844 5.148438 C 12.273438 5.164062 12.335938 5.183594 12.390625 5.207031 C 12.507812 5.253906 12.613281 5.324219 12.699219 5.402344 C 12.878906 5.558594 12.976562 5.757812 13.03125 5.925781 C 13.082031 6.09375 13.089844 6.242188 13.089844 6.339844 C 13.085938 6.441406 13.074219 6.496094 13.074219 6.496094 C 13.074219 6.496094 13.058594 6.441406 13.023438 6.351562 C 12.988281 6.261719 12.933594 6.136719 12.855469 6.003906 C 12.773438 5.871094 12.664062 5.730469 12.515625 5.628906 C 12.445312 5.578125 12.363281 5.535156 12.277344 5.503906 C 12.230469 5.488281 12.1875 5.476562 12.140625 5.464844 L 12.070312 5.453125 C 12.046875 5.449219 12.023438 5.445312 12.003906 5.445312 C 11.980469 5.441406 11.949219 5.4375 11.921875 5.4375 L 11.886719 5.433594 L 11.851562 5.433594 C 11.800781 5.433594 11.753906 5.433594 11.707031 5.441406 C 11.613281 5.449219 11.527344 5.46875 11.445312 5.5 C 11.363281 5.535156 11.289062 5.578125 11.222656 5.628906 C 11.15625 5.679688 11.101562 5.738281 11.054688 5.800781 C 10.957031 5.917969 10.894531 6.039062 10.855469 6.125 C 10.8125 6.214844 10.796875 6.269531 10.796875 6.269531 " fill-opacity="1" fill-rule="nonzero"/><path fill="#cd7f32" d="M 9.554688 6.730469 C 9.554688 6.730469 9.539062 6.703125 9.527344 6.65625 C 9.515625 6.605469 9.507812 6.53125 9.519531 6.445312 C 9.535156 6.355469 9.570312 6.25 9.640625 6.152344 C 9.675781 6.105469 9.722656 6.0625 9.773438 6.023438 C 9.796875 6.003906 9.824219 5.984375 9.851562 5.96875 L 9.878906 5.957031 L 9.894531 5.949219 L 9.929688 5.933594 C 9.992188 5.90625 10.046875 5.886719 10.105469 5.875 C 10.164062 5.863281 10.226562 5.859375 10.285156 5.859375 C 10.40625 5.863281 10.515625 5.902344 10.589844 5.953125 C 10.667969 6.007812 10.714844 6.066406 10.738281 6.113281 C 10.765625 6.160156 10.769531 6.1875 10.769531 6.1875 C 10.769531 6.1875 10.660156 6.140625 10.523438 6.132812 C 10.453125 6.128906 10.378906 6.132812 10.304688 6.152344 C 10.265625 6.160156 10.226562 6.171875 10.183594 6.183594 C 10.144531 6.195312 10.101562 6.210938 10.066406 6.226562 C 10.015625 6.25 9.984375 6.261719 9.949219 6.285156 C 9.914062 6.300781 9.882812 6.324219 9.851562 6.347656 C 9.789062 6.394531 9.738281 6.453125 9.695312 6.511719 C 9.652344 6.566406 9.617188 6.625 9.59375 6.664062 C 9.570312 6.703125 9.554688 6.730469 9.554688 6.730469 " fill-opacity="1" fill-rule="nonzero"/></svg>